G04*
G04 #@! TF.GenerationSoftware,Altium Limited,Altium Designer,23.1.1 (15)*
G04*
G04 Layer_Color=65535*
%FSLAX44Y44*%
%MOMM*%
G71*
G04*
G04 #@! TF.SameCoordinates,3E9F2625-A0FB-4649-AC3E-977DFEA3D768*
G04*
G04*
G04 #@! TF.FilePolarity,Positive*
G04*
G01*
G75*
%ADD10C,0.6000*%
%ADD11C,0.2500*%
%ADD12C,0.1270*%
%ADD13C,0.2000*%
%ADD14C,0.4000*%
%ADD15C,0.1524*%
%ADD16C,0.2032*%
D10*
X166720Y-174620D02*
G03*
X166720Y-174620I-3000J0D01*
G01*
D11*
X144220Y-161120D02*
G03*
X144220Y-161120I-1250J0D01*
G01*
X146624Y-324590D02*
G03*
X146624Y-324590I-1250J0D01*
G01*
D12*
X203484Y-56630D02*
G03*
X203484Y-56630I-1414J0D01*
G01*
X67440Y-143660D02*
X78900D01*
X67440Y-257660D02*
Y-143660D01*
Y-257660D02*
X78900D01*
X103980D02*
X115440D01*
Y-143660D01*
X103980D02*
X115440D01*
X152700Y-400334D02*
X165700D01*
X148700D02*
X152700D01*
X148700Y-387834D02*
X152700D01*
X165700D01*
X152700Y-400334D02*
Y-387834D01*
X119380Y-400334D02*
Y-387834D01*
X106380Y-400334D02*
X119380D01*
X123380D01*
X119380Y-387834D02*
X123380D01*
X106380D02*
X119380D01*
X74970Y-61330D02*
X206970D01*
X74970Y23670D02*
X206970D01*
X74970Y-61330D02*
Y23670D01*
X206970Y-61330D02*
Y23670D01*
X241215Y-416180D02*
X260715D01*
Y-561180D02*
Y-416180D01*
X170715D02*
X189215D01*
X170715Y-561180D02*
Y-416180D01*
Y-561180D02*
X260715D01*
X185470Y-369852D02*
Y-309852D01*
X194270D01*
X214670D02*
X223470D01*
Y-369852D02*
Y-309852D01*
X214670Y-369852D02*
X223470D01*
X185470D02*
X194270D01*
D13*
X256270Y-348130D02*
G03*
X256270Y-348130I-1000J0D01*
G01*
X27670D02*
G03*
X27670Y-348130I-1000J0D01*
G01*
X205470Y-384852D02*
G03*
X205470Y-384852I-1000J0D01*
G01*
X176990Y-346590D02*
Y-344590D01*
X170990Y-346590D02*
Y-344590D01*
X148130Y-346590D02*
Y-344590D01*
X154130Y-346590D02*
Y-344590D01*
X24590Y-493960D02*
Y-482460D01*
Y-493960D02*
X113990D01*
Y-482460D01*
X60150Y-146160D02*
Y-144160D01*
X54150Y-146160D02*
Y-144160D01*
X54150Y-257160D02*
Y-255160D01*
X60150Y-257160D02*
Y-255160D01*
X153720Y-231620D02*
Y-164620D01*
Y-231620D02*
X191720D01*
X153720Y-164620D02*
X191720D01*
Y-231620D02*
Y-164620D01*
X138890Y-375650D02*
Y-373650D01*
X132890Y-375650D02*
Y-373650D01*
X142124Y-343590D02*
Y-334590D01*
X110124Y-343590D02*
Y-334590D01*
X142124D01*
X110124Y-343590D02*
X142124D01*
X81100Y-386600D02*
Y-384600D01*
X75100Y-386600D02*
Y-384600D01*
X63480Y-386600D02*
Y-384600D01*
X57480Y-386600D02*
Y-384600D01*
X242570Y-341630D02*
X267970D01*
X242570Y-62230D02*
X267970D01*
X242570Y-341630D02*
Y-62230D01*
X267970Y-341630D02*
Y-62230D01*
X13970Y-341630D02*
X39370D01*
X13970Y-62230D02*
X39370D01*
X13970Y-341630D02*
Y-62230D01*
X39370Y-341630D02*
Y-62230D01*
X103330Y-348980D02*
Y-346980D01*
X97330Y-348980D02*
Y-346980D01*
X61770Y-349980D02*
Y-347980D01*
X67770Y-349980D02*
Y-347980D01*
D14*
X217715Y-404180D02*
G03*
X217715Y-404180I-2000J0D01*
G01*
D15*
X86812Y-349980D02*
Y-346980D01*
X78812Y-349980D02*
Y-346980D01*
X78312Y-334980D02*
X87312D01*
D16*
X130810Y-426975D02*
X128271D01*
X129541D01*
Y-433323D01*
X128271Y-434593D01*
X127002D01*
X125732Y-433323D01*
X137158Y-434593D02*
Y-426975D01*
X133350Y-430784D01*
X138428D01*
X109474Y-300993D02*
Y-307340D01*
X110744Y-308610D01*
X113283D01*
X114552Y-307340D01*
Y-300993D01*
X117092Y-308610D02*
X119631D01*
X118361D01*
Y-300993D01*
X117092Y-302262D01*
X57150Y-15241D02*
X54611D01*
X55881D01*
Y-21589D01*
X54611Y-22859D01*
X53342D01*
X52072Y-21589D01*
X64768Y-15241D02*
X59690D01*
Y-19050D01*
X62229Y-17780D01*
X63498D01*
X64768Y-19050D01*
Y-21589D01*
X63498Y-22859D01*
X60959D01*
X59690Y-21589D01*
X109222Y-375921D02*
Y-383539D01*
X113031D01*
X114300Y-382269D01*
Y-377191D01*
X113031Y-375921D01*
X109222D01*
X116840Y-377191D02*
X118109Y-375921D01*
X120648D01*
X121918Y-377191D01*
Y-378460D01*
X120648Y-379730D01*
X119379D01*
X120648D01*
X121918Y-381000D01*
Y-382269D01*
X120648Y-383539D01*
X118109D01*
X116840Y-382269D01*
X66802Y-108207D02*
Y-109476D01*
X69341Y-112015D01*
X71880Y-109476D01*
Y-108207D01*
X69341Y-112015D02*
Y-115824D01*
X74419D02*
X76959D01*
X75689D01*
Y-108207D01*
X74419Y-109476D01*
X135382Y-143766D02*
Y-150114D01*
X136652Y-151384D01*
X139191D01*
X140460Y-150114D01*
Y-143766D01*
X148078Y-151384D02*
X142999D01*
X148078Y-146306D01*
Y-145036D01*
X146808Y-143766D01*
X144269D01*
X142999Y-145036D01*
X189736Y-283720D02*
X188467Y-282451D01*
X185928D01*
X184658Y-283720D01*
Y-284990D01*
X185928Y-286259D01*
X188467D01*
X189736Y-287529D01*
Y-288798D01*
X188467Y-290068D01*
X185928D01*
X184658Y-288798D01*
X192276Y-290068D02*
X194815D01*
X193545D01*
Y-282451D01*
X192276Y-283720D01*
X61468Y-329930D02*
Y-322312D01*
X65277D01*
X66546Y-323582D01*
Y-326121D01*
X65277Y-327391D01*
X61468D01*
X64007D02*
X66546Y-329930D01*
X69085Y-323582D02*
X70355Y-322312D01*
X72894D01*
X74164Y-323582D01*
Y-324852D01*
X72894Y-326121D01*
X71625D01*
X72894D01*
X74164Y-327391D01*
Y-328660D01*
X72894Y-329930D01*
X70355D01*
X69085Y-328660D01*
X86362Y-372109D02*
Y-364491D01*
X90171D01*
X91440Y-365761D01*
Y-368300D01*
X90171Y-369570D01*
X86362D01*
X88901D02*
X91440Y-372109D01*
X99058D02*
X93980D01*
X99058Y-367030D01*
Y-365761D01*
X97788Y-364491D01*
X95249D01*
X93980Y-365761D01*
X45722Y-372109D02*
Y-364491D01*
X49530D01*
X50800Y-365761D01*
Y-368300D01*
X49530Y-369570D01*
X45722D01*
X48261D02*
X50800Y-372109D01*
X53339D02*
X55878D01*
X54609D01*
Y-364491D01*
X53339Y-365761D01*
X245113Y-408939D02*
Y-401321D01*
X247652Y-403860D01*
X250192Y-401321D01*
Y-408939D01*
X252731Y-401321D02*
Y-408939D01*
Y-405130D01*
X257809D01*
Y-401321D01*
Y-408939D01*
X264157D02*
Y-401321D01*
X260348Y-405130D01*
X265427D01*
X16513Y-408939D02*
Y-401321D01*
X19052Y-403860D01*
X21592Y-401321D01*
Y-408939D01*
X24131Y-401321D02*
Y-408939D01*
Y-405130D01*
X29209D01*
Y-401321D01*
Y-408939D01*
X31748Y-402591D02*
X33018Y-401321D01*
X35557D01*
X36827Y-402591D01*
Y-403860D01*
X35557Y-405130D01*
X34288D01*
X35557D01*
X36827Y-406400D01*
Y-407669D01*
X35557Y-408939D01*
X33018D01*
X31748Y-407669D01*
X223523Y-53339D02*
Y-45721D01*
X226063Y-48260D01*
X228602Y-45721D01*
Y-53339D01*
X231141Y-45721D02*
Y-53339D01*
Y-49530D01*
X236219D01*
Y-45721D01*
Y-53339D01*
X243837D02*
X238758D01*
X243837Y-48260D01*
Y-46991D01*
X242567Y-45721D01*
X240028D01*
X238758Y-46991D01*
X39373Y-53339D02*
Y-45721D01*
X41912Y-48260D01*
X44451Y-45721D01*
Y-53339D01*
X46990Y-45721D02*
Y-53339D01*
Y-49530D01*
X52069D01*
Y-45721D01*
Y-53339D01*
X54608D02*
X57147D01*
X55877D01*
Y-45721D01*
X54608Y-46991D01*
X220980Y-68581D02*
X218441D01*
X219711D01*
Y-74929D01*
X218441Y-76199D01*
X217172D01*
X215902Y-74929D01*
X223520Y-69851D02*
X224789Y-68581D01*
X227328D01*
X228598Y-69851D01*
Y-71120D01*
X227328Y-72390D01*
X226059D01*
X227328D01*
X228598Y-73660D01*
Y-74929D01*
X227328Y-76199D01*
X224789D01*
X223520Y-74929D01*
X57150Y-69851D02*
X54611D01*
X55881D01*
Y-76199D01*
X54611Y-77469D01*
X53342D01*
X52072Y-76199D01*
X64768Y-77469D02*
X59690D01*
X64768Y-72390D01*
Y-71121D01*
X63498Y-69851D01*
X60959D01*
X59690Y-71121D01*
X159512Y-426467D02*
X156973D01*
X158242D01*
Y-432815D01*
X156973Y-434085D01*
X155703D01*
X154434Y-432815D01*
X162051Y-434085D02*
X164590D01*
X163321D01*
Y-426467D01*
X162051Y-427737D01*
X154940Y-361951D02*
X149862D01*
Y-365760D01*
X152401D01*
X149862D01*
Y-369569D01*
X157480D02*
X160019D01*
X158749D01*
Y-361951D01*
X157480Y-363221D01*
X149862Y-375921D02*
Y-383539D01*
X153671D01*
X154940Y-382269D01*
Y-377191D01*
X153671Y-375921D01*
X149862D01*
X162558Y-383539D02*
X157480D01*
X162558Y-378460D01*
Y-377191D01*
X161288Y-375921D01*
X158749D01*
X157480Y-377191D01*
X78994Y-319534D02*
Y-327152D01*
X82803D01*
X84072Y-325882D01*
Y-320804D01*
X82803Y-319534D01*
X78994D01*
X86611Y-327152D02*
X89151D01*
X87881D01*
Y-319534D01*
X86611Y-320804D01*
X55116Y-230762D02*
X53847Y-229492D01*
X51308D01*
X50038Y-230762D01*
Y-235840D01*
X51308Y-237110D01*
X53847D01*
X55116Y-235840D01*
X62734Y-229492D02*
X57656D01*
Y-233301D01*
X60195Y-232032D01*
X61464D01*
X62734Y-233301D01*
Y-235840D01*
X61464Y-237110D01*
X58925D01*
X57656Y-235840D01*
X55116Y-119762D02*
X53847Y-118492D01*
X51308D01*
X50038Y-119762D01*
Y-124840D01*
X51308Y-126110D01*
X53847D01*
X55116Y-124840D01*
X61464Y-126110D02*
Y-118492D01*
X57656Y-122301D01*
X62734D01*
X174752Y-319787D02*
X173483Y-318517D01*
X170944D01*
X169674Y-319787D01*
Y-324865D01*
X170944Y-326135D01*
X173483D01*
X174752Y-324865D01*
X177292Y-319787D02*
X178561Y-318517D01*
X181100D01*
X182370Y-319787D01*
Y-321056D01*
X181100Y-322326D01*
X179831D01*
X181100D01*
X182370Y-323596D01*
Y-324865D01*
X181100Y-326135D01*
X178561D01*
X177292Y-324865D01*
X155702Y-319787D02*
X154433Y-318517D01*
X151894D01*
X150624Y-319787D01*
Y-324865D01*
X151894Y-326135D01*
X154433D01*
X155702Y-324865D01*
X163320Y-326135D02*
X158242D01*
X163320Y-321056D01*
Y-319787D01*
X162050Y-318517D01*
X159511D01*
X158242Y-319787D01*
X102106Y-322582D02*
X100837Y-321312D01*
X98298D01*
X97028Y-322582D01*
Y-327660D01*
X98298Y-328930D01*
X100837D01*
X102106Y-327660D01*
X104646Y-328930D02*
X107185D01*
X105915D01*
Y-321312D01*
X104646Y-322582D01*
M02*
