G04*
G04 #@! TF.GenerationSoftware,Altium Limited,Altium Designer,23.1.1 (15)*
G04*
G04 Layer_Color=8421504*
%FSLAX44Y44*%
%MOMM*%
G71*
G04*
G04 #@! TF.SameCoordinates,3E9F2625-A0FB-4649-AC3E-977DFEA3D768*
G04*
G04*
G04 #@! TF.FilePolarity,Positive*
G04*
G01*
G75*
%ADD17R,0.8000X0.6000*%
%ADD18R,0.6858X1.2000*%
%ADD19R,0.8000X1.2000*%
%ADD20R,2.0000X5.5000*%
%ADD21R,1.3500X0.4500*%
%ADD22R,0.8500X1.2500*%
%ADD23R,0.5000X0.5000*%
%ADD24R,0.8000X0.8000*%
%ADD25R,1.4000X1.0000*%
D17*
X173990Y-353590D02*
D03*
Y-337590D02*
D03*
X151130D02*
D03*
Y-353590D02*
D03*
X57150Y-153160D02*
D03*
Y-137160D02*
D03*
Y-248160D02*
D03*
Y-264160D02*
D03*
X135890Y-382650D02*
D03*
Y-366650D02*
D03*
X78100Y-393600D02*
D03*
Y-377600D02*
D03*
X60480Y-393600D02*
D03*
Y-377600D02*
D03*
X100330Y-355980D02*
D03*
Y-339980D02*
D03*
X64770Y-340980D02*
D03*
Y-356980D02*
D03*
D18*
X54090Y-429160D02*
D03*
X84490D02*
D03*
X64290D02*
D03*
X74290D02*
D03*
D19*
X41790D02*
D03*
X96790D02*
D03*
D20*
X91440Y-248160D02*
D03*
Y-153160D02*
D03*
D21*
X202470Y-227370D02*
D03*
Y-220870D02*
D03*
Y-214370D02*
D03*
Y-207870D02*
D03*
Y-201370D02*
D03*
Y-194870D02*
D03*
Y-188370D02*
D03*
Y-181870D02*
D03*
Y-175370D02*
D03*
Y-168870D02*
D03*
X142970Y-227370D02*
D03*
Y-220870D02*
D03*
Y-214370D02*
D03*
Y-207870D02*
D03*
Y-201370D02*
D03*
Y-194870D02*
D03*
Y-188370D02*
D03*
Y-181870D02*
D03*
Y-175370D02*
D03*
Y-168870D02*
D03*
D22*
X135624Y-324590D02*
D03*
X126124D02*
D03*
X116624D02*
D03*
Y-353590D02*
D03*
X135624D02*
D03*
D23*
X168200Y-394084D02*
D03*
X146200D02*
D03*
X125880D02*
D03*
X103880D02*
D03*
D24*
X82812Y-340980D02*
D03*
Y-355980D02*
D03*
D25*
X204470Y-374852D02*
D03*
Y-304852D02*
D03*
M02*
