G04*
G04 #@! TF.GenerationSoftware,Altium Limited,Altium Designer,23.1.1 (15)*
G04*
G04 Layer_Physical_Order=2*
G04 Layer_Color=36540*
%FSLAX44Y44*%
%MOMM*%
G71*
G04*
G04 #@! TF.SameCoordinates,3E9F2625-A0FB-4649-AC3E-977DFEA3D768*
G04*
G04*
G04 #@! TF.FilePolarity,Positive*
G04*
G01*
G75*
%ADD43O,0.8000X1.6000*%
%ADD44C,1.5450*%
%ADD45C,3.1800*%
%ADD47C,1.1628*%
%ADD48O,4.5000X2.2500*%
%ADD49O,5.0000X2.5000*%
%ADD50C,1.2700*%
%ADD51C,0.4572*%
G36*
X274788Y-500848D02*
X8422D01*
Y-8422D01*
X274788D01*
Y-500848D01*
D02*
G37*
%LPC*%
G36*
X167721Y-64665D02*
X167640D01*
Y-73660D01*
X176635D01*
Y-73579D01*
X175935Y-70968D01*
X174584Y-68627D01*
X172673Y-66716D01*
X170332Y-65364D01*
X167721Y-64665D01*
D02*
G37*
G36*
X165100D02*
X165019D01*
X162408Y-65364D01*
X160067Y-66716D01*
X158156Y-68627D01*
X156805Y-70968D01*
X156105Y-73579D01*
Y-73660D01*
X165100D01*
Y-64665D01*
D02*
G37*
G36*
X256299Y-67116D02*
X254241D01*
X252254Y-67649D01*
X250472Y-68677D01*
X249017Y-70132D01*
X247988Y-71914D01*
X247456Y-73901D01*
Y-75959D01*
X247988Y-77946D01*
X249017Y-79728D01*
X250472Y-81183D01*
X252254Y-82212D01*
X254241Y-82744D01*
X256299D01*
X258286Y-82212D01*
X260068Y-81183D01*
X261523Y-79728D01*
X262551Y-77946D01*
X263084Y-75959D01*
Y-73901D01*
X262551Y-71914D01*
X261523Y-70132D01*
X260068Y-68677D01*
X258286Y-67649D01*
X256299Y-67116D01*
D02*
G37*
G36*
X27699D02*
X25641D01*
X23654Y-67649D01*
X21872Y-68677D01*
X20417Y-70132D01*
X19389Y-71914D01*
X18856Y-73901D01*
Y-75959D01*
X19389Y-77946D01*
X20417Y-79728D01*
X21872Y-81183D01*
X23654Y-82212D01*
X25641Y-82744D01*
X27699D01*
X29686Y-82212D01*
X31468Y-81183D01*
X32923Y-79728D01*
X33951Y-77946D01*
X34484Y-75959D01*
Y-73901D01*
X33951Y-71914D01*
X32923Y-70132D01*
X31468Y-68677D01*
X29686Y-67649D01*
X27699Y-67116D01*
D02*
G37*
G36*
X193050Y-65205D02*
X190490D01*
X188016Y-65868D01*
X185799Y-67148D01*
X183988Y-68959D01*
X182708Y-71176D01*
X182045Y-73650D01*
Y-76210D01*
X182708Y-78684D01*
X183988Y-80901D01*
X185799Y-82712D01*
X188016Y-83992D01*
X190490Y-84655D01*
X193050D01*
X195524Y-83992D01*
X197741Y-82712D01*
X199552Y-80901D01*
X200832Y-78684D01*
X201495Y-76210D01*
Y-73650D01*
X200832Y-71176D01*
X199552Y-68959D01*
X197741Y-67148D01*
X195524Y-65868D01*
X193050Y-65205D01*
D02*
G37*
G36*
X142250D02*
X139690D01*
X137216Y-65868D01*
X134999Y-67148D01*
X133188Y-68959D01*
X131908Y-71176D01*
X131245Y-73650D01*
Y-76210D01*
X131908Y-78684D01*
X133188Y-80901D01*
X134999Y-82712D01*
X137216Y-83992D01*
X139690Y-84655D01*
X142250D01*
X144724Y-83992D01*
X146941Y-82712D01*
X148752Y-80901D01*
X150032Y-78684D01*
X150695Y-76210D01*
Y-73650D01*
X150032Y-71176D01*
X148752Y-68959D01*
X146941Y-67148D01*
X144724Y-65868D01*
X142250Y-65205D01*
D02*
G37*
G36*
X116850D02*
X114290D01*
X111816Y-65868D01*
X109599Y-67148D01*
X107788Y-68959D01*
X106508Y-71176D01*
X105845Y-73650D01*
Y-76210D01*
X106508Y-78684D01*
X107788Y-80901D01*
X109599Y-82712D01*
X111816Y-83992D01*
X114290Y-84655D01*
X116850D01*
X119324Y-83992D01*
X121541Y-82712D01*
X123352Y-80901D01*
X124632Y-78684D01*
X125295Y-76210D01*
Y-73650D01*
X124632Y-71176D01*
X123352Y-68959D01*
X121541Y-67148D01*
X119324Y-65868D01*
X116850Y-65205D01*
D02*
G37*
G36*
X91450D02*
X88890D01*
X86416Y-65868D01*
X84199Y-67148D01*
X82388Y-68959D01*
X81108Y-71176D01*
X80445Y-73650D01*
Y-76210D01*
X81108Y-78684D01*
X82388Y-80901D01*
X84199Y-82712D01*
X86416Y-83992D01*
X88890Y-84655D01*
X91450D01*
X93924Y-83992D01*
X96141Y-82712D01*
X97952Y-80901D01*
X99232Y-78684D01*
X99895Y-76210D01*
Y-73650D01*
X99232Y-71176D01*
X97952Y-68959D01*
X96141Y-67148D01*
X93924Y-65868D01*
X91450Y-65205D01*
D02*
G37*
G36*
X176635Y-76200D02*
X167640D01*
Y-85195D01*
X167721D01*
X170332Y-84495D01*
X172673Y-83144D01*
X174584Y-81233D01*
X175935Y-78892D01*
X176635Y-76281D01*
Y-76200D01*
D02*
G37*
G36*
X165100D02*
X156105D01*
Y-76281D01*
X156805Y-78892D01*
X158156Y-81233D01*
X160067Y-83144D01*
X162408Y-84495D01*
X165019Y-85195D01*
X165100D01*
Y-76200D01*
D02*
G37*
G36*
X142321Y-90065D02*
X142240D01*
Y-99060D01*
X151235D01*
Y-98979D01*
X150535Y-96368D01*
X149184Y-94027D01*
X147273Y-92116D01*
X144932Y-90765D01*
X142321Y-90065D01*
D02*
G37*
G36*
X139700D02*
X139619D01*
X137008Y-90765D01*
X134667Y-92116D01*
X132756Y-94027D01*
X131404Y-96368D01*
X130705Y-98979D01*
Y-99060D01*
X139700D01*
Y-90065D01*
D02*
G37*
G36*
X256299Y-92516D02*
X254241D01*
X252254Y-93048D01*
X250472Y-94077D01*
X249017Y-95532D01*
X247988Y-97314D01*
X247456Y-99301D01*
Y-101359D01*
X247988Y-103346D01*
X249017Y-105128D01*
X250472Y-106583D01*
X252254Y-107612D01*
X254241Y-108144D01*
X256299D01*
X258286Y-107612D01*
X260068Y-106583D01*
X261523Y-105128D01*
X262551Y-103346D01*
X263084Y-101359D01*
Y-99301D01*
X262551Y-97314D01*
X261523Y-95532D01*
X260068Y-94077D01*
X258286Y-93048D01*
X256299Y-92516D01*
D02*
G37*
G36*
X27699D02*
X25641D01*
X23654Y-93048D01*
X21872Y-94077D01*
X20417Y-95532D01*
X19389Y-97314D01*
X18856Y-99301D01*
Y-101359D01*
X19389Y-103346D01*
X20417Y-105128D01*
X21872Y-106583D01*
X23654Y-107612D01*
X25641Y-108144D01*
X27699D01*
X29686Y-107612D01*
X31468Y-106583D01*
X32923Y-105128D01*
X33951Y-103346D01*
X34484Y-101359D01*
Y-99301D01*
X33951Y-97314D01*
X32923Y-95532D01*
X31468Y-94077D01*
X29686Y-93048D01*
X27699Y-92516D01*
D02*
G37*
G36*
X193050Y-90605D02*
X190490D01*
X188016Y-91268D01*
X185799Y-92548D01*
X183988Y-94359D01*
X182708Y-96576D01*
X182045Y-99050D01*
Y-101610D01*
X182708Y-104084D01*
X183988Y-106301D01*
X185799Y-108112D01*
X188016Y-109392D01*
X190490Y-110055D01*
X193050D01*
X195524Y-109392D01*
X197741Y-108112D01*
X199552Y-106301D01*
X200832Y-104084D01*
X201495Y-101610D01*
Y-99050D01*
X200832Y-96576D01*
X199552Y-94359D01*
X197741Y-92548D01*
X195524Y-91268D01*
X193050Y-90605D01*
D02*
G37*
G36*
X167650D02*
X165090D01*
X162616Y-91268D01*
X160399Y-92548D01*
X158588Y-94359D01*
X157308Y-96576D01*
X156645Y-99050D01*
Y-101610D01*
X157308Y-104084D01*
X158588Y-106301D01*
X160399Y-108112D01*
X162616Y-109392D01*
X165090Y-110055D01*
X167650D01*
X170124Y-109392D01*
X172341Y-108112D01*
X174152Y-106301D01*
X175432Y-104084D01*
X176095Y-101610D01*
Y-99050D01*
X175432Y-96576D01*
X174152Y-94359D01*
X172341Y-92548D01*
X170124Y-91268D01*
X167650Y-90605D01*
D02*
G37*
G36*
X116850D02*
X114290D01*
X111816Y-91268D01*
X109599Y-92548D01*
X107788Y-94359D01*
X106508Y-96576D01*
X105845Y-99050D01*
Y-101610D01*
X106508Y-104084D01*
X107788Y-106301D01*
X109599Y-108112D01*
X111816Y-109392D01*
X114290Y-110055D01*
X116850D01*
X119324Y-109392D01*
X121541Y-108112D01*
X123352Y-106301D01*
X124632Y-104084D01*
X125295Y-101610D01*
Y-99050D01*
X124632Y-96576D01*
X123352Y-94359D01*
X121541Y-92548D01*
X119324Y-91268D01*
X116850Y-90605D01*
D02*
G37*
G36*
X91450D02*
X88890D01*
X86416Y-91268D01*
X84199Y-92548D01*
X82388Y-94359D01*
X81108Y-96576D01*
X80445Y-99050D01*
Y-101610D01*
X81108Y-104084D01*
X82388Y-106301D01*
X84199Y-108112D01*
X86416Y-109392D01*
X88890Y-110055D01*
X91450D01*
X93924Y-109392D01*
X96141Y-108112D01*
X97952Y-106301D01*
X99232Y-104084D01*
X99895Y-101610D01*
Y-99050D01*
X99232Y-96576D01*
X97952Y-94359D01*
X96141Y-92548D01*
X93924Y-91268D01*
X91450Y-90605D01*
D02*
G37*
G36*
X151235Y-101600D02*
X142240D01*
Y-110595D01*
X142321D01*
X144932Y-109895D01*
X147273Y-108544D01*
X149184Y-106633D01*
X150535Y-104292D01*
X151235Y-101681D01*
Y-101600D01*
D02*
G37*
G36*
X139700D02*
X130705D01*
Y-101681D01*
X131404Y-104292D01*
X132756Y-106633D01*
X134667Y-108544D01*
X137008Y-109895D01*
X139619Y-110595D01*
X139700D01*
Y-101600D01*
D02*
G37*
G36*
X256299Y-117916D02*
X254241D01*
X252254Y-118448D01*
X250472Y-119477D01*
X249017Y-120932D01*
X247988Y-122714D01*
X247456Y-124701D01*
Y-126759D01*
X247988Y-128746D01*
X249017Y-130528D01*
X250472Y-131983D01*
X252254Y-133012D01*
X254241Y-133544D01*
X256299D01*
X258286Y-133012D01*
X260068Y-131983D01*
X261523Y-130528D01*
X262551Y-128746D01*
X263084Y-126759D01*
Y-124701D01*
X262551Y-122714D01*
X261523Y-120932D01*
X260068Y-119477D01*
X258286Y-118448D01*
X256299Y-117916D01*
D02*
G37*
G36*
X27699D02*
X25641D01*
X23654Y-118448D01*
X21872Y-119477D01*
X20417Y-120932D01*
X19389Y-122714D01*
X18856Y-124701D01*
Y-126759D01*
X19389Y-128746D01*
X20417Y-130528D01*
X21872Y-131983D01*
X23654Y-133012D01*
X25641Y-133544D01*
X27699D01*
X29686Y-133012D01*
X31468Y-131983D01*
X32923Y-130528D01*
X33951Y-128746D01*
X34484Y-126759D01*
Y-124701D01*
X33951Y-122714D01*
X32923Y-120932D01*
X31468Y-119477D01*
X29686Y-118448D01*
X27699Y-117916D01*
D02*
G37*
G36*
X256299Y-143316D02*
X254241D01*
X252254Y-143848D01*
X250472Y-144877D01*
X249017Y-146332D01*
X247988Y-148114D01*
X247456Y-150101D01*
Y-152159D01*
X247988Y-154146D01*
X249017Y-155928D01*
X250472Y-157383D01*
X252254Y-158412D01*
X254241Y-158944D01*
X256299D01*
X258286Y-158412D01*
X260068Y-157383D01*
X261523Y-155928D01*
X262551Y-154146D01*
X263084Y-152159D01*
Y-150101D01*
X262551Y-148114D01*
X261523Y-146332D01*
X260068Y-144877D01*
X258286Y-143848D01*
X256299Y-143316D01*
D02*
G37*
G36*
X27699D02*
X25641D01*
X23654Y-143848D01*
X21872Y-144877D01*
X20417Y-146332D01*
X19389Y-148114D01*
X18856Y-150101D01*
Y-152159D01*
X19389Y-154146D01*
X20417Y-155928D01*
X21872Y-157383D01*
X23654Y-158412D01*
X25641Y-158944D01*
X27699D01*
X29686Y-158412D01*
X31468Y-157383D01*
X32923Y-155928D01*
X33951Y-154146D01*
X34484Y-152159D01*
Y-150101D01*
X33951Y-148114D01*
X32923Y-146332D01*
X31468Y-144877D01*
X29686Y-143848D01*
X27699Y-143316D01*
D02*
G37*
G36*
X256299Y-168716D02*
X254241D01*
X252254Y-169249D01*
X250472Y-170277D01*
X249017Y-171732D01*
X247988Y-173514D01*
X247456Y-175501D01*
Y-177559D01*
X247988Y-179546D01*
X249017Y-181328D01*
X250472Y-182783D01*
X252254Y-183811D01*
X254241Y-184344D01*
X256299D01*
X258286Y-183811D01*
X260068Y-182783D01*
X261523Y-181328D01*
X262551Y-179546D01*
X263084Y-177559D01*
Y-175501D01*
X262551Y-173514D01*
X261523Y-171732D01*
X260068Y-170277D01*
X258286Y-169249D01*
X256299Y-168716D01*
D02*
G37*
G36*
X27699D02*
X25641D01*
X23654Y-169249D01*
X21872Y-170277D01*
X20417Y-171732D01*
X19389Y-173514D01*
X18856Y-175501D01*
Y-177559D01*
X19389Y-179546D01*
X20417Y-181328D01*
X21872Y-182783D01*
X23654Y-183811D01*
X25641Y-184344D01*
X27699D01*
X29686Y-183811D01*
X31468Y-182783D01*
X32923Y-181328D01*
X33951Y-179546D01*
X34484Y-177559D01*
Y-175501D01*
X33951Y-173514D01*
X32923Y-171732D01*
X31468Y-170277D01*
X29686Y-169249D01*
X27699Y-168716D01*
D02*
G37*
G36*
X186273Y-177324D02*
X184567D01*
X182992Y-177976D01*
X181786Y-179182D01*
X181134Y-180757D01*
Y-182463D01*
X181786Y-184038D01*
X182992Y-185243D01*
X184567Y-185896D01*
X186273D01*
X187848Y-185243D01*
X189053Y-184038D01*
X189706Y-182463D01*
Y-180757D01*
X189053Y-179182D01*
X187848Y-177976D01*
X186273Y-177324D01*
D02*
G37*
G36*
X160743Y-184214D02*
X159038D01*
X157462Y-184867D01*
X156257Y-186072D01*
X155604Y-187647D01*
Y-189353D01*
X156257Y-190928D01*
X157462Y-192134D01*
X159038Y-192786D01*
X160743D01*
X162318Y-192134D01*
X163524Y-190928D01*
X164176Y-189353D01*
Y-187647D01*
X163524Y-186072D01*
X162318Y-184867D01*
X160743Y-184214D01*
D02*
G37*
G36*
X256299Y-194116D02*
X254241D01*
X252254Y-194648D01*
X250472Y-195677D01*
X249017Y-197132D01*
X247988Y-198914D01*
X247456Y-200901D01*
Y-202959D01*
X247988Y-204946D01*
X249017Y-206728D01*
X250472Y-208183D01*
X252254Y-209212D01*
X254241Y-209744D01*
X256299D01*
X258286Y-209212D01*
X260068Y-208183D01*
X261523Y-206728D01*
X262551Y-204946D01*
X263084Y-202959D01*
Y-200901D01*
X262551Y-198914D01*
X261523Y-197132D01*
X260068Y-195677D01*
X258286Y-194648D01*
X256299Y-194116D01*
D02*
G37*
G36*
X27699D02*
X25641D01*
X23654Y-194648D01*
X21872Y-195677D01*
X20417Y-197132D01*
X19389Y-198914D01*
X18856Y-200901D01*
Y-202959D01*
X19389Y-204946D01*
X20417Y-206728D01*
X21872Y-208183D01*
X23654Y-209212D01*
X25641Y-209744D01*
X27699D01*
X29686Y-209212D01*
X31468Y-208183D01*
X32923Y-206728D01*
X33951Y-204946D01*
X34484Y-202959D01*
Y-200901D01*
X33951Y-198914D01*
X32923Y-197132D01*
X31468Y-195677D01*
X29686Y-194648D01*
X27699Y-194116D01*
D02*
G37*
G36*
X170923Y-216584D02*
X169217D01*
X167642Y-217236D01*
X167530Y-217349D01*
X167418Y-217236D01*
X165842Y-216584D01*
X164137D01*
X162562Y-217236D01*
X162450Y-217349D01*
X162338Y-217236D01*
X160763Y-216584D01*
X159057D01*
X157482Y-217236D01*
X157370Y-217349D01*
X157258Y-217236D01*
X155682Y-216584D01*
X153977D01*
X152402Y-217236D01*
X151196Y-218442D01*
X150544Y-220017D01*
Y-221723D01*
X151196Y-223298D01*
X152402Y-224503D01*
X153977Y-225156D01*
X155682D01*
X157258Y-224503D01*
X157370Y-224391D01*
X157482Y-224503D01*
X159057Y-225156D01*
X160763D01*
X162338Y-224503D01*
X162450Y-224391D01*
X162562Y-224503D01*
X164137Y-225156D01*
X165842D01*
X167418Y-224503D01*
X167530Y-224391D01*
X167642Y-224503D01*
X169217Y-225156D01*
X170923D01*
X172498Y-224503D01*
X173703Y-223298D01*
X174356Y-221723D01*
Y-220017D01*
X173703Y-218442D01*
X172498Y-217236D01*
X170923Y-216584D01*
D02*
G37*
G36*
X131963D02*
X130257D01*
X128682Y-217236D01*
X128570Y-217349D01*
X128458Y-217236D01*
X126883Y-216584D01*
X125177D01*
X123602Y-217236D01*
X122845Y-217994D01*
X122142Y-218350D01*
X121201Y-218010D01*
X120538Y-217346D01*
X118963Y-216694D01*
X117257D01*
X115682Y-217346D01*
X114476Y-218552D01*
X113824Y-220127D01*
Y-221833D01*
X114476Y-223408D01*
X115682Y-224613D01*
X117257Y-225266D01*
X118963D01*
X120538Y-224613D01*
X121295Y-223856D01*
X121722Y-223640D01*
X122598Y-223978D01*
X122965Y-225280D01*
X122854Y-225415D01*
X122097Y-226172D01*
X121444Y-227747D01*
Y-229453D01*
X122097Y-231028D01*
X122844Y-231775D01*
X122097Y-232522D01*
X121444Y-234097D01*
Y-235803D01*
X122097Y-237378D01*
X122844Y-238125D01*
X122097Y-238872D01*
X121444Y-240447D01*
Y-242153D01*
X122097Y-243728D01*
X122844Y-244475D01*
X122097Y-245222D01*
X121444Y-246797D01*
Y-248503D01*
X122097Y-250078D01*
X122844Y-250825D01*
X122097Y-251572D01*
X121444Y-253147D01*
Y-254853D01*
X122097Y-256428D01*
X123302Y-257633D01*
X124877Y-258286D01*
X126583D01*
X128158Y-257633D01*
X129363Y-256428D01*
X130016Y-254853D01*
Y-253147D01*
X129363Y-251572D01*
X128616Y-250825D01*
X129363Y-250078D01*
X130016Y-248503D01*
Y-246797D01*
X129363Y-245222D01*
X128616Y-244475D01*
X129363Y-243728D01*
X130016Y-242153D01*
Y-240447D01*
X129363Y-238872D01*
X128616Y-238125D01*
X129363Y-237378D01*
X130016Y-235803D01*
Y-234097D01*
X129363Y-232522D01*
X128616Y-231775D01*
X129363Y-231028D01*
X130016Y-229453D01*
Y-227747D01*
X129363Y-226172D01*
X129343Y-226152D01*
X130063Y-225075D01*
X130257Y-225156D01*
X131963D01*
X133538Y-224503D01*
X134743Y-223298D01*
X135396Y-221723D01*
Y-220017D01*
X134743Y-218442D01*
X133538Y-217236D01*
X131963Y-216584D01*
D02*
G37*
G36*
X256299Y-219516D02*
X254241D01*
X252254Y-220049D01*
X250472Y-221077D01*
X249017Y-222532D01*
X247988Y-224314D01*
X247456Y-226301D01*
Y-228359D01*
X247988Y-230346D01*
X249017Y-232128D01*
X250472Y-233583D01*
X252254Y-234611D01*
X254241Y-235144D01*
X256299D01*
X258286Y-234611D01*
X260068Y-233583D01*
X261523Y-232128D01*
X262551Y-230346D01*
X263084Y-228359D01*
Y-226301D01*
X262551Y-224314D01*
X261523Y-222532D01*
X260068Y-221077D01*
X258286Y-220049D01*
X256299Y-219516D01*
D02*
G37*
G36*
X27699D02*
X25641D01*
X23654Y-220049D01*
X21872Y-221077D01*
X20417Y-222532D01*
X19389Y-224314D01*
X18856Y-226301D01*
Y-228359D01*
X19389Y-230346D01*
X20417Y-232128D01*
X21872Y-233583D01*
X23654Y-234611D01*
X25641Y-235144D01*
X27699D01*
X29686Y-234611D01*
X31468Y-233583D01*
X32923Y-232128D01*
X33951Y-230346D01*
X34484Y-228359D01*
Y-226301D01*
X33951Y-224314D01*
X32923Y-222532D01*
X31468Y-221077D01*
X29686Y-220049D01*
X27699Y-219516D01*
D02*
G37*
G36*
X256299Y-244916D02*
X254241D01*
X252254Y-245448D01*
X250472Y-246477D01*
X249017Y-247932D01*
X247988Y-249714D01*
X247456Y-251701D01*
Y-253759D01*
X247988Y-255746D01*
X249017Y-257528D01*
X250472Y-258983D01*
X252254Y-260012D01*
X254241Y-260544D01*
X256299D01*
X258286Y-260012D01*
X260068Y-258983D01*
X261523Y-257528D01*
X262551Y-255746D01*
X263084Y-253759D01*
Y-251701D01*
X262551Y-249714D01*
X261523Y-247932D01*
X260068Y-246477D01*
X258286Y-245448D01*
X256299Y-244916D01*
D02*
G37*
G36*
X27699D02*
X25641D01*
X23654Y-245448D01*
X21872Y-246477D01*
X20417Y-247932D01*
X19389Y-249714D01*
X18856Y-251701D01*
Y-253759D01*
X19389Y-255746D01*
X20417Y-257528D01*
X21872Y-258983D01*
X23654Y-260012D01*
X25641Y-260544D01*
X27699D01*
X29686Y-260012D01*
X31468Y-258983D01*
X32923Y-257528D01*
X33951Y-255746D01*
X34484Y-253759D01*
Y-251701D01*
X33951Y-249714D01*
X32923Y-247932D01*
X31468Y-246477D01*
X29686Y-245448D01*
X27699Y-244916D01*
D02*
G37*
G36*
X256299Y-270316D02*
X254241D01*
X252254Y-270849D01*
X250472Y-271877D01*
X249017Y-273332D01*
X247988Y-275114D01*
X247456Y-277101D01*
Y-279159D01*
X247988Y-281146D01*
X249017Y-282928D01*
X250472Y-284383D01*
X252254Y-285411D01*
X254241Y-285944D01*
X256299D01*
X258286Y-285411D01*
X260068Y-284383D01*
X261523Y-282928D01*
X262551Y-281146D01*
X263084Y-279159D01*
Y-277101D01*
X262551Y-275114D01*
X261523Y-273332D01*
X260068Y-271877D01*
X258286Y-270849D01*
X256299Y-270316D01*
D02*
G37*
G36*
X27699D02*
X25641D01*
X23654Y-270849D01*
X21872Y-271877D01*
X20417Y-273332D01*
X19389Y-275114D01*
X18856Y-277101D01*
Y-279159D01*
X19389Y-281146D01*
X20417Y-282928D01*
X21872Y-284383D01*
X23654Y-285411D01*
X25641Y-285944D01*
X27699D01*
X29686Y-285411D01*
X31468Y-284383D01*
X32923Y-282928D01*
X33951Y-281146D01*
X34484Y-279159D01*
Y-277101D01*
X33951Y-275114D01*
X32923Y-273332D01*
X31468Y-271877D01*
X29686Y-270849D01*
X27699Y-270316D01*
D02*
G37*
G36*
X189829Y-299752D02*
X188123D01*
X186548Y-300404D01*
X185343Y-301610D01*
X184690Y-303185D01*
Y-304891D01*
X185343Y-306466D01*
X186548Y-307672D01*
X188123Y-308324D01*
X189829D01*
X191404Y-307672D01*
X192610Y-306466D01*
X193262Y-304891D01*
Y-303185D01*
X192610Y-301610D01*
X191404Y-300404D01*
X189829Y-299752D01*
D02*
G37*
G36*
X256299Y-295716D02*
X254241D01*
X252254Y-296248D01*
X250472Y-297277D01*
X249017Y-298732D01*
X247988Y-300514D01*
X247456Y-302501D01*
Y-304559D01*
X247988Y-306546D01*
X249017Y-308328D01*
X250472Y-309783D01*
X252254Y-310812D01*
X254241Y-311344D01*
X256299D01*
X258286Y-310812D01*
X260068Y-309783D01*
X261523Y-308328D01*
X262551Y-306546D01*
X263084Y-304559D01*
Y-302501D01*
X262551Y-300514D01*
X261523Y-298732D01*
X260068Y-297277D01*
X258286Y-296248D01*
X256299Y-295716D01*
D02*
G37*
G36*
X27699D02*
X25641D01*
X23654Y-296248D01*
X21872Y-297277D01*
X20417Y-298732D01*
X19389Y-300514D01*
X18856Y-302501D01*
Y-304559D01*
X19389Y-306546D01*
X20417Y-308328D01*
X21872Y-309783D01*
X23654Y-310812D01*
X25641Y-311344D01*
X27699D01*
X29686Y-310812D01*
X31468Y-309783D01*
X32923Y-308328D01*
X33951Y-306546D01*
X34484Y-304559D01*
Y-302501D01*
X33951Y-300514D01*
X32923Y-298732D01*
X31468Y-297277D01*
X29686Y-296248D01*
X27699Y-295716D01*
D02*
G37*
G36*
X256540Y-320622D02*
Y-327660D01*
X263578D01*
X263055Y-325705D01*
X261955Y-323801D01*
X260399Y-322245D01*
X258494Y-321145D01*
X256540Y-320622D01*
D02*
G37*
G36*
X27940D02*
Y-327660D01*
X34978D01*
X34455Y-325705D01*
X33355Y-323801D01*
X31799Y-322245D01*
X29894Y-321145D01*
X27940Y-320622D01*
D02*
G37*
G36*
X254000D02*
X252045Y-321145D01*
X250140Y-322245D01*
X248585Y-323801D01*
X247485Y-325705D01*
X246962Y-327660D01*
X254000D01*
Y-320622D01*
D02*
G37*
G36*
X25400D02*
X23445Y-321145D01*
X21541Y-322245D01*
X19985Y-323801D01*
X18885Y-325705D01*
X18362Y-327660D01*
X25400D01*
Y-320622D01*
D02*
G37*
G36*
X263578Y-330200D02*
X256540D01*
Y-337238D01*
X258494Y-336715D01*
X260399Y-335615D01*
X261955Y-334059D01*
X263055Y-332155D01*
X263578Y-330200D01*
D02*
G37*
G36*
X34978D02*
X27940D01*
Y-337238D01*
X29894Y-336715D01*
X31799Y-335615D01*
X33355Y-334059D01*
X34455Y-332155D01*
X34978Y-330200D01*
D02*
G37*
G36*
X254000D02*
X246962D01*
X247485Y-332155D01*
X248585Y-334059D01*
X250140Y-335615D01*
X252045Y-336715D01*
X254000Y-337238D01*
Y-330200D01*
D02*
G37*
G36*
X25400D02*
X18362D01*
X18885Y-332155D01*
X19985Y-334059D01*
X21541Y-335615D01*
X23445Y-336715D01*
X25400Y-337238D01*
Y-330200D01*
D02*
G37*
G36*
X116423Y-364014D02*
X114717D01*
X113142Y-364666D01*
X112395Y-365414D01*
X111648Y-364666D01*
X110073Y-364014D01*
X108367D01*
X106792Y-364666D01*
X106045Y-365414D01*
X105298Y-364666D01*
X103723Y-364014D01*
X102017D01*
X100442Y-364666D01*
X99695Y-365414D01*
X98948Y-364666D01*
X97373Y-364014D01*
X95667D01*
X94092Y-364666D01*
X93345Y-365414D01*
X92598Y-364666D01*
X91023Y-364014D01*
X89317D01*
X87742Y-364666D01*
X86537Y-365872D01*
X85884Y-367447D01*
Y-369153D01*
X86537Y-370728D01*
X86649Y-370840D01*
X86537Y-370952D01*
X85884Y-372527D01*
Y-374233D01*
X86537Y-375808D01*
X86649Y-375920D01*
X86537Y-376032D01*
X85884Y-377607D01*
Y-379313D01*
X86537Y-380888D01*
X86649Y-381000D01*
X86537Y-381112D01*
X85884Y-382687D01*
Y-384393D01*
X86537Y-385968D01*
X87742Y-387174D01*
X89317Y-387826D01*
X91023D01*
X92598Y-387174D01*
X93345Y-386426D01*
X94092Y-387174D01*
X95667Y-387826D01*
X97373D01*
X98948Y-387174D01*
X99695Y-386426D01*
X100442Y-387174D01*
X102017Y-387826D01*
X103723D01*
X105298Y-387174D01*
X106045Y-386426D01*
X106792Y-387174D01*
X108367Y-387826D01*
X110073D01*
X111648Y-387174D01*
X112395Y-386426D01*
X113142Y-387174D01*
X114717Y-387826D01*
X116423D01*
X117998Y-387174D01*
X119204Y-385968D01*
X119856Y-384393D01*
Y-382687D01*
X119204Y-381112D01*
X119091Y-381000D01*
X119204Y-380888D01*
X119856Y-379313D01*
Y-377607D01*
X119204Y-376032D01*
X119091Y-375920D01*
X119204Y-375808D01*
X119856Y-374233D01*
Y-372527D01*
X119204Y-370952D01*
X119091Y-370840D01*
X119204Y-370728D01*
X119856Y-369153D01*
Y-367447D01*
X119204Y-365872D01*
X117998Y-364666D01*
X116423Y-364014D01*
D02*
G37*
G36*
X78952Y-396554D02*
X77247D01*
X75672Y-397206D01*
X74467Y-398412D01*
X73814Y-399987D01*
Y-401693D01*
X74467Y-403268D01*
X75672Y-404473D01*
X77247Y-405126D01*
X78952D01*
X80528Y-404473D01*
X81734Y-403268D01*
X82386Y-401693D01*
Y-399987D01*
X81734Y-398412D01*
X80528Y-397206D01*
X78952Y-396554D01*
D02*
G37*
G36*
X61333D02*
X59627D01*
X58052Y-397206D01*
X56846Y-398412D01*
X56194Y-399987D01*
Y-401693D01*
X56846Y-403268D01*
X58052Y-404473D01*
X59627Y-405126D01*
X61333D01*
X62908Y-404473D01*
X64113Y-403268D01*
X64766Y-401693D01*
Y-399987D01*
X64113Y-398412D01*
X62908Y-397206D01*
X61333Y-396554D01*
D02*
G37*
G36*
X93555Y-403892D02*
X91357D01*
X89233Y-404461D01*
X87329Y-405560D01*
X85774Y-407115D01*
X84675Y-409019D01*
X84106Y-411143D01*
Y-413341D01*
X84675Y-415465D01*
X85774Y-417369D01*
X87329Y-418924D01*
X89233Y-420023D01*
X91357Y-420592D01*
X93555D01*
X95679Y-420023D01*
X97583Y-418924D01*
X99138Y-417369D01*
X100237Y-415465D01*
X100806Y-413341D01*
Y-411143D01*
X100237Y-409019D01*
X99138Y-407115D01*
X97583Y-405560D01*
X95679Y-404461D01*
X93555Y-403892D01*
D02*
G37*
G36*
X113760Y-419531D02*
Y-428690D01*
X119086D01*
Y-425960D01*
X118862Y-424253D01*
X118203Y-422662D01*
X117154Y-421296D01*
X115788Y-420247D01*
X114197Y-419588D01*
X113760Y-419531D01*
D02*
G37*
G36*
X111220Y-419531D02*
X110783Y-419588D01*
X109192Y-420247D01*
X107825Y-421296D01*
X106777Y-422662D01*
X106118Y-424253D01*
X105893Y-425960D01*
Y-428690D01*
X111220D01*
Y-419531D01*
D02*
G37*
G36*
X27360D02*
Y-428690D01*
X32686D01*
Y-425960D01*
X32462Y-424253D01*
X31803Y-422662D01*
X30754Y-421296D01*
X29388Y-420247D01*
X27797Y-419588D01*
X27360Y-419531D01*
D02*
G37*
G36*
X24820Y-419531D02*
X24383Y-419588D01*
X22792Y-420247D01*
X21426Y-421296D01*
X20377Y-422662D01*
X19718Y-424253D01*
X19493Y-425960D01*
Y-428690D01*
X24820D01*
Y-419531D01*
D02*
G37*
G36*
X228215Y-409555D02*
X203215D01*
X199430Y-410053D01*
X195902Y-411514D01*
X192873Y-413839D01*
X190549Y-416867D01*
X189088Y-420395D01*
X188590Y-424180D01*
X189088Y-427965D01*
X190549Y-431493D01*
X192873Y-434521D01*
X195902Y-436846D01*
X199430Y-438307D01*
X203215Y-438805D01*
X228215D01*
X232000Y-438307D01*
X235527Y-436846D01*
X238556Y-434521D01*
X240881Y-431493D01*
X242342Y-427965D01*
X242840Y-424180D01*
X242342Y-420395D01*
X240881Y-416867D01*
X238556Y-413839D01*
X235527Y-411514D01*
X232000Y-410053D01*
X228215Y-409555D01*
D02*
G37*
G36*
X32686Y-431230D02*
X27360D01*
Y-440389D01*
X27797Y-440332D01*
X29388Y-439673D01*
X30754Y-438624D01*
X31803Y-437258D01*
X32462Y-435667D01*
X32686Y-433960D01*
Y-431230D01*
D02*
G37*
G36*
X111220Y-431230D02*
X105893D01*
Y-433960D01*
X106118Y-435667D01*
X106777Y-437258D01*
X107825Y-438624D01*
X109192Y-439673D01*
X110783Y-440332D01*
X111220Y-440389D01*
Y-431230D01*
D02*
G37*
G36*
X119086D02*
X113760D01*
Y-440389D01*
X114197Y-440332D01*
X115788Y-439673D01*
X117154Y-438624D01*
X118203Y-437258D01*
X118862Y-435667D01*
X119086Y-433960D01*
Y-431230D01*
D02*
G37*
G36*
X24820Y-431230D02*
X19493D01*
Y-433960D01*
X19718Y-435667D01*
X20377Y-437258D01*
X21426Y-438624D01*
X22792Y-439673D01*
X24383Y-440332D01*
X24820Y-440389D01*
Y-431230D01*
D02*
G37*
G36*
X65143Y-438154D02*
X63438D01*
X61862Y-438806D01*
X60656Y-440012D01*
X60004Y-441587D01*
Y-443293D01*
X60656Y-444868D01*
X61862Y-446073D01*
X63438Y-446726D01*
X65143D01*
X66718Y-446073D01*
X67923Y-444868D01*
X68576Y-443293D01*
Y-441587D01*
X67923Y-440012D01*
X66718Y-438806D01*
X65143Y-438154D01*
D02*
G37*
G36*
X75142Y-438304D02*
X73437D01*
X71862Y-438956D01*
X70656Y-440162D01*
X70004Y-441737D01*
Y-443442D01*
X70656Y-445018D01*
X71862Y-446223D01*
X73437Y-446876D01*
X75142D01*
X76718Y-446223D01*
X77923Y-445018D01*
X78576Y-443442D01*
Y-441737D01*
X77923Y-440162D01*
X76718Y-438956D01*
X75142Y-438304D01*
D02*
G37*
G36*
X113760Y-457531D02*
Y-466690D01*
X119086D01*
Y-463960D01*
X118862Y-462253D01*
X118203Y-460662D01*
X117154Y-459296D01*
X115788Y-458247D01*
X114197Y-457588D01*
X113760Y-457531D01*
D02*
G37*
G36*
X111220Y-457531D02*
X110783Y-457588D01*
X109192Y-458247D01*
X107825Y-459296D01*
X106777Y-460662D01*
X106118Y-462253D01*
X105893Y-463960D01*
Y-466690D01*
X111220D01*
Y-457531D01*
D02*
G37*
G36*
X27360D02*
Y-466690D01*
X32686D01*
Y-463960D01*
X32462Y-462253D01*
X31803Y-460662D01*
X30754Y-459296D01*
X29388Y-458247D01*
X27797Y-457588D01*
X27360Y-457531D01*
D02*
G37*
G36*
X24820Y-457531D02*
X24383Y-457588D01*
X22792Y-458247D01*
X21426Y-459296D01*
X20377Y-460662D01*
X19718Y-462253D01*
X19493Y-463960D01*
Y-466690D01*
X24820D01*
Y-457531D01*
D02*
G37*
G36*
X32686Y-469230D02*
X27360D01*
Y-478389D01*
X27797Y-478332D01*
X29388Y-477673D01*
X30754Y-476624D01*
X31803Y-475258D01*
X32462Y-473667D01*
X32686Y-471960D01*
Y-469230D01*
D02*
G37*
G36*
X111220Y-469230D02*
X105893D01*
Y-471960D01*
X106118Y-473667D01*
X106777Y-475258D01*
X107825Y-476624D01*
X109192Y-477673D01*
X110783Y-478332D01*
X111220Y-478389D01*
Y-469230D01*
D02*
G37*
G36*
X119086D02*
X113760D01*
Y-478389D01*
X114197Y-478332D01*
X115788Y-477673D01*
X117154Y-476624D01*
X118203Y-475258D01*
X118862Y-473667D01*
X119086Y-471960D01*
Y-469230D01*
D02*
G37*
G36*
X24820Y-469230D02*
X19493D01*
Y-471960D01*
X19718Y-473667D01*
X20377Y-475258D01*
X21426Y-476624D01*
X22792Y-477673D01*
X24383Y-478332D01*
X24820Y-478389D01*
Y-469230D01*
D02*
G37*
G36*
X226965Y-470271D02*
X216985D01*
Y-482910D01*
X240707D01*
X240400Y-480580D01*
X239011Y-477225D01*
X236800Y-474345D01*
X233920Y-472135D01*
X230565Y-470745D01*
X226965Y-470271D01*
D02*
G37*
G36*
X214445D02*
X204465D01*
X200865Y-470745D01*
X197511Y-472135D01*
X194630Y-474345D01*
X192419Y-477225D01*
X191030Y-480580D01*
X190723Y-482910D01*
X214445D01*
Y-470271D01*
D02*
G37*
G36*
X240707Y-485450D02*
X216985D01*
Y-498089D01*
X226965D01*
X230565Y-497615D01*
X233920Y-496226D01*
X236800Y-494015D01*
X239011Y-491134D01*
X240400Y-487780D01*
X240707Y-485450D01*
D02*
G37*
G36*
X214445D02*
X190723D01*
X191030Y-487780D01*
X192419Y-491134D01*
X194630Y-494015D01*
X197511Y-496226D01*
X200865Y-497615D01*
X204465Y-498089D01*
X214445D01*
Y-485450D01*
D02*
G37*
%LPD*%
D43*
X26090Y-429960D02*
D03*
X112490D02*
D03*
X26090Y-467960D02*
D03*
X112490D02*
D03*
D44*
X191770Y-74930D02*
D03*
Y-100330D02*
D03*
X166370D02*
D03*
Y-74930D02*
D03*
X140970D02*
D03*
Y-100330D02*
D03*
X115570Y-74930D02*
D03*
Y-100330D02*
D03*
X90170Y-74930D02*
D03*
Y-100330D02*
D03*
D45*
X255270Y-25400D02*
D03*
X26670D02*
D03*
X255270Y-379730D02*
D03*
X26670D02*
D03*
D47*
X255270Y-328930D02*
D03*
Y-303530D02*
D03*
Y-278130D02*
D03*
Y-252730D02*
D03*
Y-227330D02*
D03*
Y-201930D02*
D03*
Y-176530D02*
D03*
Y-151130D02*
D03*
Y-125730D02*
D03*
Y-100330D02*
D03*
Y-74930D02*
D03*
X26670Y-328930D02*
D03*
Y-303530D02*
D03*
Y-278130D02*
D03*
Y-252730D02*
D03*
Y-227330D02*
D03*
Y-201930D02*
D03*
Y-176530D02*
D03*
Y-151130D02*
D03*
Y-125730D02*
D03*
Y-100330D02*
D03*
Y-74930D02*
D03*
D48*
X215715Y-484180D02*
D03*
D49*
Y-424180D02*
D03*
D50*
X92456Y-412242D02*
D03*
D51*
X188976Y-304038D02*
D03*
X266700Y-52070D02*
D03*
X260350Y-64770D02*
D03*
X266700Y-77470D02*
D03*
X260350Y-90170D02*
D03*
X266700Y-102870D02*
D03*
X260350Y-115570D02*
D03*
X266700Y-128270D02*
D03*
X260350Y-140970D02*
D03*
X266700Y-153670D02*
D03*
X260350Y-166370D02*
D03*
X266700Y-179070D02*
D03*
X260350Y-191770D02*
D03*
X266700Y-204470D02*
D03*
X260350Y-217170D02*
D03*
X266700Y-229870D02*
D03*
X260350Y-242570D02*
D03*
X266700Y-255270D02*
D03*
X260350Y-267970D02*
D03*
X266700Y-280670D02*
D03*
Y-331470D02*
D03*
X260350Y-344170D02*
D03*
X266700Y-407670D02*
D03*
X260350Y-420370D02*
D03*
X266700Y-433070D02*
D03*
X260350Y-445770D02*
D03*
X266700Y-458470D02*
D03*
X260350Y-471170D02*
D03*
X266700Y-483870D02*
D03*
X260350Y-496570D02*
D03*
X247650Y-64770D02*
D03*
Y-90170D02*
D03*
Y-115570D02*
D03*
Y-140970D02*
D03*
Y-191770D02*
D03*
Y-344170D02*
D03*
X254000Y-407670D02*
D03*
Y-433070D02*
D03*
Y-458470D02*
D03*
X247650Y-471170D02*
D03*
X254000Y-483870D02*
D03*
X247650Y-496570D02*
D03*
X241300Y-52070D02*
D03*
X234950Y-64770D02*
D03*
X241300Y-77470D02*
D03*
Y-102870D02*
D03*
X234950Y-140970D02*
D03*
X241300Y-179070D02*
D03*
Y-229870D02*
D03*
Y-255270D02*
D03*
X234950Y-267970D02*
D03*
X241300Y-280670D02*
D03*
X234950Y-344170D02*
D03*
X241300Y-458470D02*
D03*
X222250Y-39370D02*
D03*
X228600Y-52070D02*
D03*
X222250Y-64770D02*
D03*
X228600Y-77470D02*
D03*
X222250Y-90170D02*
D03*
Y-140970D02*
D03*
X228600Y-179070D02*
D03*
X222250Y-267970D02*
D03*
X228600Y-280670D02*
D03*
Y-356870D02*
D03*
X222250Y-369570D02*
D03*
Y-394970D02*
D03*
X228600Y-458470D02*
D03*
X215900Y-26670D02*
D03*
X209550Y-39370D02*
D03*
X215900Y-52070D02*
D03*
X209550Y-64770D02*
D03*
X215900Y-77470D02*
D03*
X209550Y-90170D02*
D03*
X215900Y-102870D02*
D03*
X209550Y-140970D02*
D03*
Y-267970D02*
D03*
X215900Y-280670D02*
D03*
X209550Y-293370D02*
D03*
Y-394970D02*
D03*
X215900Y-458470D02*
D03*
X203200Y-26670D02*
D03*
X196850Y-39370D02*
D03*
X203200Y-52070D02*
D03*
X196850Y-140970D02*
D03*
Y-267970D02*
D03*
X203200Y-280670D02*
D03*
X196850Y-293370D02*
D03*
Y-394970D02*
D03*
X203200Y-458470D02*
D03*
X190500Y-26670D02*
D03*
X184150Y-39370D02*
D03*
X190500Y-52070D02*
D03*
X184150Y-64770D02*
D03*
Y-90170D02*
D03*
Y-191770D02*
D03*
X190500Y-204470D02*
D03*
Y-280670D02*
D03*
X184150Y-318770D02*
D03*
Y-394970D02*
D03*
X190500Y-458470D02*
D03*
X184150Y-471170D02*
D03*
Y-496570D02*
D03*
X177800Y-26670D02*
D03*
X171450Y-39370D02*
D03*
X177800Y-52070D02*
D03*
X171450Y-140970D02*
D03*
Y-166370D02*
D03*
X177800Y-179070D02*
D03*
Y-458470D02*
D03*
X171450Y-471170D02*
D03*
X177800Y-483870D02*
D03*
X171450Y-496570D02*
D03*
X165100Y-26670D02*
D03*
X158750Y-39370D02*
D03*
X165100Y-52070D02*
D03*
X158750Y-64770D02*
D03*
Y-140970D02*
D03*
Y-166370D02*
D03*
X165100Y-179070D02*
D03*
Y-204470D02*
D03*
Y-458470D02*
D03*
X158750Y-471170D02*
D03*
X165100Y-483870D02*
D03*
X158750Y-496570D02*
D03*
X152400Y-26670D02*
D03*
X146050Y-39370D02*
D03*
X152400Y-52070D02*
D03*
X146050Y-115570D02*
D03*
X152400Y-433070D02*
D03*
X146050Y-445770D02*
D03*
X152400Y-458470D02*
D03*
X146050Y-471170D02*
D03*
X152400Y-483870D02*
D03*
X146050Y-496570D02*
D03*
X139700Y-26670D02*
D03*
X133350Y-39370D02*
D03*
X139700Y-52070D02*
D03*
X133350Y-90170D02*
D03*
X139700Y-433070D02*
D03*
X133350Y-445770D02*
D03*
X139700Y-458470D02*
D03*
X133350Y-471170D02*
D03*
X139700Y-483870D02*
D03*
X133350Y-496570D02*
D03*
X127000Y-26670D02*
D03*
X120650Y-39370D02*
D03*
X127000Y-52070D02*
D03*
Y-433070D02*
D03*
X120650Y-445770D02*
D03*
X127000Y-458470D02*
D03*
Y-483870D02*
D03*
X120650Y-496570D02*
D03*
X114300Y-26670D02*
D03*
X107950Y-39370D02*
D03*
Y-267970D02*
D03*
X114300Y-280670D02*
D03*
X107950Y-293370D02*
D03*
Y-445770D02*
D03*
X114300Y-483870D02*
D03*
X107950Y-496570D02*
D03*
X101600Y-26670D02*
D03*
X95250Y-39370D02*
D03*
Y-115570D02*
D03*
X101600Y-280670D02*
D03*
X95250Y-293370D02*
D03*
X101600Y-306070D02*
D03*
X95250Y-318770D02*
D03*
X101600Y-458470D02*
D03*
X95250Y-471170D02*
D03*
X101600Y-483870D02*
D03*
X95250Y-496570D02*
D03*
X88900Y-26670D02*
D03*
X82550Y-39370D02*
D03*
Y-64770D02*
D03*
Y-90170D02*
D03*
Y-115570D02*
D03*
Y-191770D02*
D03*
X88900Y-204470D02*
D03*
Y-280670D02*
D03*
X82550Y-293370D02*
D03*
X88900Y-306070D02*
D03*
X82550Y-318770D02*
D03*
X88900Y-458470D02*
D03*
X82550Y-471170D02*
D03*
X88900Y-483870D02*
D03*
X82550Y-496570D02*
D03*
X76200Y-26670D02*
D03*
X69850Y-39370D02*
D03*
Y-64770D02*
D03*
X76200Y-77470D02*
D03*
X69850Y-90170D02*
D03*
X76200Y-102870D02*
D03*
X69850Y-115570D02*
D03*
X76200Y-128270D02*
D03*
Y-179070D02*
D03*
X69850Y-191770D02*
D03*
X76200Y-204470D02*
D03*
X69850Y-267970D02*
D03*
X76200Y-280670D02*
D03*
X69850Y-293370D02*
D03*
X76200Y-306070D02*
D03*
X69850Y-318770D02*
D03*
X76200Y-331470D02*
D03*
X69850Y-369570D02*
D03*
X76200Y-458470D02*
D03*
X69850Y-471170D02*
D03*
X76200Y-483870D02*
D03*
X69850Y-496570D02*
D03*
X63500Y-26670D02*
D03*
X57150Y-39370D02*
D03*
Y-64770D02*
D03*
X63500Y-77470D02*
D03*
X57150Y-90170D02*
D03*
X63500Y-102870D02*
D03*
X57150Y-115570D02*
D03*
X63500Y-128270D02*
D03*
Y-179070D02*
D03*
Y-204470D02*
D03*
Y-280670D02*
D03*
X57150Y-293370D02*
D03*
X63500Y-306070D02*
D03*
X57150Y-318770D02*
D03*
X63500Y-331470D02*
D03*
X57150Y-369570D02*
D03*
X63500Y-458470D02*
D03*
X57150Y-471170D02*
D03*
X63500Y-483870D02*
D03*
X57150Y-496570D02*
D03*
X44450Y-64770D02*
D03*
X50800Y-77470D02*
D03*
X44450Y-90170D02*
D03*
X50800Y-102870D02*
D03*
Y-179070D02*
D03*
X44450Y-267970D02*
D03*
Y-293370D02*
D03*
X50800Y-306070D02*
D03*
X44450Y-318770D02*
D03*
X50800Y-331470D02*
D03*
X44450Y-344170D02*
D03*
X50800Y-356870D02*
D03*
Y-458470D02*
D03*
X44450Y-471170D02*
D03*
X50800Y-483870D02*
D03*
X44450Y-496570D02*
D03*
X38100Y-77470D02*
D03*
X31750Y-90170D02*
D03*
X38100Y-102870D02*
D03*
X31750Y-115570D02*
D03*
X38100Y-128270D02*
D03*
Y-179070D02*
D03*
X31750Y-191770D02*
D03*
X38100Y-204470D02*
D03*
X31750Y-217170D02*
D03*
X38100Y-255270D02*
D03*
Y-280670D02*
D03*
Y-306070D02*
D03*
Y-331470D02*
D03*
X31750Y-344170D02*
D03*
Y-445770D02*
D03*
X38100Y-458470D02*
D03*
Y-483870D02*
D03*
X31750Y-496570D02*
D03*
X19050Y-64770D02*
D03*
Y-90170D02*
D03*
Y-115570D02*
D03*
Y-166370D02*
D03*
Y-191770D02*
D03*
Y-217170D02*
D03*
Y-242570D02*
D03*
Y-267970D02*
D03*
Y-293370D02*
D03*
Y-344170D02*
D03*
Y-420370D02*
D03*
Y-445770D02*
D03*
X25400Y-483870D02*
D03*
X19050Y-496570D02*
D03*
X125730Y-247650D02*
D03*
Y-228600D02*
D03*
Y-234950D02*
D03*
Y-241300D02*
D03*
Y-254000D02*
D03*
X154830Y-220870D02*
D03*
X164990D02*
D03*
X170070D02*
D03*
X159910D02*
D03*
X118110Y-220980D02*
D03*
X78100Y-400840D02*
D03*
X60480D02*
D03*
X90170Y-368300D02*
D03*
Y-378460D02*
D03*
Y-373380D02*
D03*
Y-383540D02*
D03*
X74290Y-442590D02*
D03*
X64290Y-442440D02*
D03*
X159890Y-188500D02*
D03*
X185420Y-181610D02*
D03*
X126030Y-220870D02*
D03*
X131110D02*
D03*
X109220Y-383540D02*
D03*
X115570D02*
D03*
Y-378460D02*
D03*
X109220D02*
D03*
X115570Y-373380D02*
D03*
X109220D02*
D03*
X102870Y-368300D02*
D03*
X109220D02*
D03*
X115570D02*
D03*
X96520D02*
D03*
Y-373380D02*
D03*
X102870D02*
D03*
X96520Y-378460D02*
D03*
X102870D02*
D03*
Y-383540D02*
D03*
X96520D02*
D03*
M02*
