M48
;Layer_Color=9474304
;FILE_FORMAT=4:4
METRIC,LZ
;TYPE=PLATED
T1F00S00C0.2032
T3F00S00C0.7112
T4F00S00C0.8128
T6F00S00C1.0300
T7F00S00C2.4000
%
T01
X0001905Y-0049657
X0003175
X0004445
X0005715
X0006985
X0008255
X0009525
X0010795
X0012065
X0013335
X0014605
X0015875
X001651Y-0048387
X001524
X001397
X00127
X001143
X001016
X000889
X000762
X000635
X000508
X000381
X000254
X0004445Y-0047117
X0005715
X0006985
X0008255
X0009525
X001016Y-0045847
X000889
X000762
X000635
X000508
X000381
X0003175Y-0044577
X0001905
Y-0042037
X0006048Y-0040084
X000781
X0009017Y-0038354
Y-0037846
Y-0037338
Y-003683
X0009652
Y-0037338
Y-0037846
Y-0038354
X0010287
Y-0037846
Y-0037338
Y-003683
X0010922
Y-0037338
Y-0037846
Y-0038354
X0011557
Y-0037846
Y-0037338
Y-003683
X0006985Y-0036957
X0005715
X0006429Y-0044244
X0007429Y-0044259
X0010795Y-0044577
X0012065
X0013335
X0014605
X001524Y-0043307
X001397
X00127
Y-0045847
X001397
X001524
X001651
X0015875Y-0047117
X0014605
X0013335
X0017145
X0018415
X001905Y-0045847
X002032
X002159
X002286
X002413
X00254
X002667
X0026035Y-0044577
X002667Y-0043307
X00254
X0026035Y-0042037
X002667Y-0040767
X00254
X0022225Y-0039497
X0020955
X0019685
X0018415
X0022225Y-0036957
X0024765Y-0047117
X0026035
X002667Y-0048387
X00254
X0026035Y-0049657
X0024765
X0018415
X0017145
X001778Y-0048387
Y-0045847
X0018415Y-0031877
X00188976Y-00304038
X0019685Y-0029337
X0020955
X002159Y-0028067
X002286
X002413
X0023495Y-0026797
X0022225
X0020955
X0019685
X002032Y-0028067
X001905
X002667
X0026035Y-0026797
X002667Y-0025527
X0026035Y-0024257
X002667Y-0022987
X0026035Y-0021717
X002667Y-0020447
X0026035Y-0019177
X0024765
X002413Y-0017907
X002286
X002667
X0026035Y-0016637
X002667Y-0015367
X0026035Y-0014097
X0024765
X0023495
X0022225
X0020955
X0019685
X0017145
Y-0016637
X001778Y-0017907
X0018542Y-0018161
X0018415Y-0019177
X001905Y-0020447
X0017007Y-0022087
X002413Y-0022987
Y-0025527
X0024765Y-0034417
X0026035
X002667Y-0033147
X0023495Y-0034417
X002286Y-0035687
X0024765Y-0011557
X0026035
X002667Y-0010287
X0026035Y-0009017
X0024765
X002413Y-0007747
X002286
X002159
X0022225Y-0006477
X0023495
X0024765
X0026035
X002667Y-0005207
Y-0007747
Y-0012827
X002413Y-0010287
X002159
X0022225Y-0009017
X0020955
Y-0006477
X002159Y-0005207
X002286
X002413
X0022225Y-0003937
X0020955
X0019685
X0018415
X0017145
X001778Y-0002667
X001905
X002032
X002159
X002032Y-0005207
X001905
X001778
X0018415Y-0006477
Y-0009017
X0015875Y-0006477
X001651Y-0005207
X001524
X001397
X00127
X0013335Y-0003937
X0014605
X0015875
X001651Y-0002667
X001524
X001397
X00127
X001143
X001016
X000889
X000762
X000635
X0006985Y-0003937
X0008255
X0009525
X0010795
X0012065
X0013335Y-0009017
X0014605Y-0011557
X0015875Y-0014097
Y-0016637
X001651Y-0017907
X0015989Y-001885
X001651Y-0020447
X0016499Y-0022087
X0015991
X0015483
X0013111
X0012603
X0012573Y-002286
Y-0023495
Y-002413
Y-0024765
Y-00254
X0010795Y-0026797
X001143Y-0028067
X001016
X000889
X000762
X000635
X0006985Y-0026797
Y-0029337
X0008255
X0009525
X0010795
X001016Y-0030607
X000889
X000762
X000635
X000508
X000381
X0004445Y-0029337
X0005715
Y-0031877
X0006985
X0008255
X0009525
X000762Y-0033147
X000635
X000508
X000381
X0004445Y-0031877
Y-0034417
X0003175
X0001905
X000508Y-0035687
X000381Y-0028067
X0004445Y-0026797
X000381Y-0025527
X0001905Y-0024257
Y-0021717
X0003175
X000381Y-0020447
X0003175Y-0019177
X0001905
Y-0016637
X000381Y-0017907
X000508
X000635
X000762
X0008255Y-0019177
X0006985
X000762Y-0020447
X000889
X000635
X0011811Y-0022098
X0009525Y-0011557
X0008255
X0006985
X0005715
X000635Y-0010287
X000762
X0008255Y-0009017
X0006985
X0005715
X0004445
X0003175
X0001905
Y-0006477
X0004445
X0005715
X0006985
X0008255
X000762Y-0007747
X000635
X000508
X000381
Y-0010287
X000508
X0003175Y-0011557
X0001905
X000381Y-0012827
X000635
X000762
X0005715Y-0003937
X0001905Y-0026797
Y-0029337
T03
X00092456Y-00412242
T04
X0025527Y-0032893
Y-0030353
Y-0027813
Y-0025273
Y-0022733
Y-0020193
Y-0017653
Y-0015113
Y-0012573
Y-0010033
Y-0007493
X0002667
Y-0010033
Y-0012573
Y-0015113
Y-0017653
Y-0020193
Y-0022733
Y-0025273
Y-0027813
Y-0030353
Y-0032893
T06
X0019177Y-0010033
Y-0007493
X0016637
Y-0010033
X0014097
Y-0007493
X0011557
Y-0010033
X0009017
Y-0007493
T07
X0002667Y-0037973
X0025527
Y-000254
X0002667
M30
